<svg width="24" height="24" viewBox="0 0 24 24" fill="none" xmlns="http://www.w3.org/2000/svg">
<path d="M3.66211 19.0821C3.54173 19.2554 3.54173 19.5443 3.7223 19.7176C3.84269 19.8909 4.08345 20.0064 4.32422 19.9486L7.21343 19.2554L7.99593 21.9706C8.05612 22.2017 8.23669 22.375 8.47746 22.375H8.53765C8.71823 22.375 8.959 22.2595 9.01919 22.0861L11.2463 18.3889C11.7278 18.4466 12.2094 18.4466 12.7511 18.3889L14.9782 22.0861C15.0986 22.2595 15.2791 22.375 15.4597 22.375H15.5199C15.7607 22.375 15.9413 22.2017 16.0014 21.9706L16.7839 19.2554L19.6732 19.9486C19.9139 20.0064 20.1547 19.9487 20.2751 19.7176C20.3955 19.5443 20.4556 19.3132 20.3353 19.0821L18.3489 15.847C19.9741 14.2872 20.9974 12.0919 20.9974 9.72331C21.1178 4.92838 17.0849 1 12.089 1C7.09305 1 3 4.92838 3 9.72331C3 12.0919 4.02326 14.2872 5.64844 15.847L3.66211 19.0821ZM12.089 2.09764C16.4228 2.09764 19.9741 5.50608 19.9741 9.66554C19.9741 11.6297 19.1916 13.4206 17.8674 14.8071C13.052 19.8331 4.14365 16.598 4.14365 9.66554C4.20384 5.50608 7.69497 2.09764 12.089 2.09764Z" fill="#FA6400"/>
<path d="M12.0887 15.7895C15.5798 15.7895 18.4089 13.0743 18.4089 9.72359C18.4089 6.37292 15.5798 3.65771 12.0887 3.65771C8.59757 3.65771 5.76855 6.37292 5.76855 9.72359C5.76855 13.0165 8.59757 15.7895 12.0887 15.7895ZM9.1393 8.27934L10.4033 8.10603C10.6441 8.10603 10.8247 7.93272 10.8849 7.7594L11.4266 6.66177C11.6674 6.19961 12.3897 6.19961 12.6304 6.66177L13.1722 7.7594C13.2925 7.93272 13.4731 8.10603 13.6537 8.10603L14.9177 8.27934C15.4594 8.33711 15.7002 9.03035 15.2789 9.37697L14.376 10.1858C14.1954 10.3591 14.1352 10.5324 14.1954 10.7635C14.1954 10.8212 14.4362 12.0344 14.376 11.9766C14.4964 12.4966 13.8945 12.901 13.4129 12.6699C13.3527 12.6121 12.2693 12.0922 12.3295 12.0922C12.1489 11.9766 11.9081 11.9766 11.7276 12.0922C11.6674 12.1499 10.5237 12.6699 10.6441 12.6699C10.1626 12.901 9.56064 12.4966 9.68103 11.9766C9.68103 11.9189 9.92179 10.7057 9.8616 10.7635C9.92179 10.5324 9.80141 10.3591 9.68103 10.1858L8.77815 9.37697C8.417 8.97258 8.59757 8.33711 9.1393 8.27934Z" fill="#FA6400"/>
</svg>
