<svg width="20" height="20" viewBox="0 0 20 20" fill="none" xmlns="http://www.w3.org/2000/svg">
<g clip-path="url(#clip0_2007_2736)">
<path d="M19.0076 18.8501H16.2677V2.93884V0.574966C16.2677 0.257201 16.0105 0 15.6927 0H4.30689C3.98913 0 3.73192 0.257201 3.73192 0.574966V2.93884V18.8501H0.992019C0.674255 18.8501 0.417053 19.1073 0.417053 19.425C0.417053 19.7428 0.674255 20 0.992019 20H19.0076C19.3254 20 19.5826 19.7428 19.5826 19.425C19.5826 19.1073 19.3254 18.8501 19.0076 18.8501ZM13.0096 18.8501V14.1185C13.0096 13.8007 12.7524 13.5435 12.4346 13.5435H7.56503C7.24727 13.5435 6.99007 13.8007 6.99007 14.1185V18.8497H4.88186V3.51381H15.1178V18.8501H13.0096ZM13.3825 5.9831V7.71873C13.3825 8.00046 13.166 8.2293 12.8988 8.2293H10.7335C10.4663 8.2293 10.2497 8.00084 10.2497 7.71873V5.9831C10.2497 5.70136 10.4663 5.47253 10.7335 5.47253H12.8988C13.166 5.47291 13.3825 5.70136 13.3825 5.9831ZM9.7499 5.9831V7.71873C9.7499 8.00046 9.53333 8.2293 9.26616 8.2293H7.10084C6.83367 8.2293 6.6171 8.00084 6.6171 7.71873V5.9831C6.6171 5.70136 6.83367 5.47253 7.10084 5.47253H9.26616C9.53333 5.47291 9.7499 5.70136 9.7499 5.9831ZM9.7499 9.2673V11.0029C9.7499 11.2847 9.53333 11.5135 9.26616 11.5135H7.10084C6.83367 11.5135 6.6171 11.285 6.6171 11.0029V9.2673C6.6171 8.98557 6.83367 8.75673 7.10084 8.75673H9.26616C9.53333 8.75712 9.7499 8.98557 9.7499 9.2673ZM13.3825 9.2673V11.0029C13.3825 11.2847 13.166 11.5135 12.8988 11.5135H10.7335C10.4663 11.5135 10.2497 11.285 10.2497 11.0029V9.2673C10.2497 8.98557 10.4663 8.75673 10.7335 8.75673H12.8988C13.166 8.75712 13.3825 8.98557 13.3825 9.2673Z" fill="#FA6400"/>
</g>
<defs>
<clipPath id="clip0_2007_2736">
<rect width="20" height="20" fill="white"/>
</clipPath>
</defs>
</svg>
