<svg width="29" height="29" viewBox="0 0 29 29" fill="none" xmlns="http://www.w3.org/2000/svg">
<rect width="29" height="29" rx="14.5" fill="#F96503"/>
<path fill-rule="evenodd" clip-rule="evenodd" d="M14.5 0C6.49187 0 0 6.49187 0 14.5C0 22.5081 6.49187 29 14.5 29C22.5081 29 29 22.5081 29 14.5C29 6.49187 22.5081 0 14.5 0ZM15.8947 22.7757V14.8869H18.0723L18.3609 12.1684H15.8947L15.8984 10.8078C15.8984 10.0987 15.9658 9.71882 16.9841 9.71882H18.3455V7H16.1675C13.5515 7 12.6307 8.31877 12.6307 10.5365V12.1687H11V14.8872H12.6307V22.7757H15.8947Z" fill="#3F3F4C"/>
</svg>
