<svg width="29" height="29" viewBox="0 0 29 29" fill="none" xmlns="http://www.w3.org/2000/svg">
<rect width="29" height="29" rx="14.5" fill="#F96503"/>
<path fill-rule="evenodd" clip-rule="evenodd" d="M14.5 0C6.49187 0 0 6.49187 0 14.5C0 22.5081 6.49187 29 14.5 29C22.5081 29 29 22.5081 29 14.5C29 6.49187 22.5081 0 14.5 0ZM11.312 6.81339C12.1369 6.77585 12.4005 6.76667 14.5007 6.76667H14.4983C16.5992 6.76667 16.8618 6.77585 17.6867 6.81339C18.51 6.85109 19.0723 6.98143 19.5653 7.17267C20.0744 7.37003 20.5046 7.63426 20.9348 8.06443C21.3649 8.49428 21.6292 8.92574 21.8273 9.43437C22.0174 9.92609 22.1479 10.488 22.1866 11.3113C22.2237 12.1362 22.2333 12.3998 22.2333 14.5001C22.2333 16.6003 22.2237 16.8633 22.1866 17.6882C22.1479 18.5111 22.0174 19.0733 21.8273 19.5651C21.6292 20.0736 21.3649 20.5051 20.9348 20.9349C20.5051 21.3651 20.0743 21.63 19.5658 21.8275C19.0737 22.0187 18.5111 22.1491 17.6879 22.1868C16.863 22.2243 16.6002 22.2335 14.4998 22.2335C12.3997 22.2335 12.1362 22.2243 11.3113 22.1868C10.4882 22.1491 9.92609 22.0187 9.43405 21.8275C8.92574 21.63 8.49428 21.3651 8.06459 20.9349C7.63458 20.5051 7.37036 20.0736 7.17267 19.565C6.98159 19.0733 6.85125 18.5113 6.81339 17.688C6.77601 16.8631 6.76667 16.6003 6.76667 14.5001C6.76667 12.3998 6.77633 12.1361 6.81323 11.3112C6.85028 10.4882 6.98079 9.92609 7.17251 9.43421C7.37068 8.92574 7.6349 8.49428 8.06507 8.06443C8.49492 7.63442 8.92638 7.37019 9.43502 7.17267C9.92673 6.98143 10.4887 6.85109 11.312 6.81339Z" fill="#3F3F4C"/>
<path fill-rule="evenodd" clip-rule="evenodd" d="M13.807 8.16026C13.9417 8.16005 14.0866 8.16011 14.243 8.16018L14.5007 8.16026C16.5655 8.16026 16.8103 8.16767 17.6257 8.20473C18.3797 8.2392 18.7889 8.36519 19.0615 8.47105C19.4224 8.61121 19.6797 8.77877 19.9502 9.04944C20.2209 9.32011 20.3884 9.57789 20.5289 9.93878C20.6348 10.2111 20.7609 10.6203 20.7952 11.3743C20.8323 12.1895 20.8403 12.4344 20.8403 14.4983C20.8403 16.5621 20.8323 16.807 20.7952 17.6223C20.7608 18.3763 20.6348 18.7855 20.5289 19.0578C20.3887 19.4187 20.2209 19.6756 19.9502 19.9461C19.6795 20.2168 19.4226 20.3844 19.0615 20.5245C18.7892 20.6309 18.3797 20.7565 17.6257 20.791C16.8104 20.8281 16.5655 20.8361 14.5007 20.8361C12.4357 20.8361 12.191 20.8281 11.3758 20.791C10.6218 20.7562 10.2125 20.6302 9.93978 20.5244C9.57889 20.3842 9.32111 20.2167 9.05044 19.946C8.77977 19.6753 8.61221 19.4182 8.47172 19.0571C8.36587 18.7848 8.23972 18.3756 8.2054 17.6216C8.16835 16.8064 8.16093 16.5615 8.16093 14.4963C8.16093 12.4312 8.16835 12.1876 8.2054 11.3724C8.23988 10.6184 8.36587 10.2091 8.47172 9.93653C8.61189 9.57563 8.77977 9.31785 9.05044 9.04718C9.32111 8.77652 9.57889 8.60896 9.93978 8.46847C10.2124 8.36213 10.6218 8.23646 11.3758 8.20183C12.0892 8.1696 12.3657 8.15994 13.807 8.15833V8.16026ZM18.6288 9.44433C18.1164 9.44433 17.7007 9.85952 17.7007 10.372C17.7007 10.8844 18.1164 11.3 18.6288 11.3C19.1411 11.3 19.5568 10.8844 19.5568 10.372C19.5568 9.85968 19.1411 9.44401 18.6288 9.44401V9.44433ZM10.5293 14.5C10.5293 12.3069 12.3074 10.5287 14.5006 10.5286C16.6938 10.5286 18.4715 12.3068 18.4715 14.5C18.4715 16.6933 16.694 18.4707 14.5007 18.4707C12.3075 18.4707 10.5293 16.6933 10.5293 14.5Z" fill="#3F3F4C"/>
<path d="M14.5007 11.9222C15.9243 11.9222 17.0785 13.0763 17.0785 14.5C17.0785 15.9236 15.9243 17.0779 14.5007 17.0779C13.077 17.0779 11.9229 15.9236 11.9229 14.5C11.9229 13.0763 13.077 11.9222 14.5007 11.9222Z" fill="#3F3F4C"/>
</svg>
