<svg width="84" height="57" viewBox="0 0 84 57" fill="none" xmlns="http://www.w3.org/2000/svg">
<path d="M72.9648 0L47.3398 2.10732e-05L52.2941 5.32827H60.7203V16.7649L65.8389 22V5.32827L77.9989 5.32824L72.9648 0Z" fill="white"/>
<path d="M12.2537 0H38.197L33.1544 5.19717H25.1534L25.1534 15.724L19.9714 20.9268V5.19717H7L12.2537 0Z" fill="white"/>
<path d="M44.0011 0H41.5138L36.5838 4.82927H48.955L44.0011 0Z" fill="white"/>
<path d="M20.8828 49.4492H25.1797L24.9492 50.5195H23.5312L22.5781 55H21.082L22.0352 50.5195H20.6602L20.8828 49.4492ZM25.3828 49.4492H29.6797L29.4492 50.5195H28.0312L27.0781 55H25.582L26.5352 50.5195H25.1602L25.3828 49.4492ZM32.9219 49.4492H34.418L33.4648 53.8945H35.7617L35.5195 55H31.7383L32.9219 49.4492ZM37.293 49.4492H41.2031L40.9805 50.4805H38.5469L38.3164 51.5938H40.6055L40.3945 52.5938H38.1016L37.8125 53.9609H40.332L40.1094 55H36.1094L37.293 49.4492ZM44.5352 50.5352L43.3047 52.7695H44.8008L44.5352 50.5352ZM43.793 49.4492H45.6328L46.5273 55H45.0547L44.9102 53.8164H42.7344L42.0703 55H40.5117L43.793 49.4492ZM52.8164 49.5859L52.4961 50.7266C52.2878 50.6146 52.0716 50.5312 51.8477 50.4766C51.6263 50.4193 51.3945 50.3906 51.1523 50.3906C50.418 50.3906 49.8424 50.5781 49.4258 50.9531C49.0091 51.3281 48.8008 51.8424 48.8008 52.4961C48.8008 52.9727 48.9284 53.3464 49.1836 53.6172C49.4388 53.888 49.7904 54.0234 50.2383 54.0234C50.3294 54.0234 50.4232 54.0169 50.5195 54.0039C50.6159 53.9883 50.7201 53.9661 50.832 53.9375L51.082 52.7773H50.168L50.3828 51.7695H52.6953L52.0391 54.8398C51.763 54.931 51.4688 54.9987 51.1562 55.043C50.8438 55.0898 50.5013 55.1133 50.1289 55.1133C49.2305 55.1133 48.5339 54.8828 48.0391 54.4219C47.5443 53.9609 47.2969 53.3138 47.2969 52.4805C47.2969 52.0586 47.3659 51.6654 47.5039 51.3008C47.6445 50.9336 47.8503 50.612 48.1211 50.3359C48.4596 49.9818 48.8568 49.7227 49.3125 49.5586C49.7682 49.3945 50.3229 49.3125 50.9766 49.3125C51.3125 49.3125 51.6328 49.3346 51.9375 49.3789C52.2422 49.4232 52.5352 49.4922 52.8164 49.5859ZM54.207 49.4492H55.6953L55.0234 52.543C54.9922 52.6784 54.9688 52.8125 54.9531 52.9453C54.9401 53.0755 54.9336 53.2031 54.9336 53.3281C54.9336 53.5365 55.0091 53.7122 55.1602 53.8555C55.3112 53.9987 55.4974 54.0703 55.7188 54.0703C56.0156 54.0703 56.2513 53.9557 56.4258 53.7266C56.6003 53.4974 56.7539 53.0846 56.8867 52.4883L57.5586 49.4492H58.9883L58.2773 52.9023C58.1159 53.6836 57.8242 54.2526 57.4023 54.6094C56.9805 54.9661 56.3893 55.1445 55.6289 55.1445C54.9284 55.1445 54.3906 54.9844 54.0156 54.6641C53.6406 54.3411 53.4531 53.8802 53.4531 53.2812C53.4531 53.1458 53.4596 53.0156 53.4727 52.8906C53.4857 52.763 53.5065 52.6419 53.5352 52.5273L54.207 49.4492ZM60.1055 49.4492H64.0156L63.793 50.4805H61.3594L61.1289 51.5938H63.418L63.207 52.5938H60.9141L60.625 53.9609H63.1445L62.9219 55H58.9219L60.1055 49.4492Z" fill="white"/>
<path d="M1.53125 29.8984H10.125L9.66406 32.0391H6.82812L4.92188 41H1.92969L3.83594 32.0391H1.08594L1.53125 29.8984ZM11.3672 29.8984H14.3906L13.5078 34.0703H16.9453L17.8438 29.8984H20.8672L18.5156 41H15.4766L16.4844 36.2969H13.0312L12.0391 41H9.01562L11.3672 29.8984ZM27.8203 32.0703L25.3594 36.5391H28.3516L27.8203 32.0703ZM26.3359 29.8984H30.0156L31.8047 41H28.8594L28.5703 38.6328H24.2188L22.8906 41H19.7734L26.3359 29.8984ZM35.0391 29.8984H38L35.6328 41H32.6719L35.0391 29.8984ZM40.5781 29.8984H43.5703L41.6641 38.7891H46.2578L45.7734 41H38.2109L40.5781 29.8984ZM54.1328 32.0703L51.6719 36.5391H54.6641L54.1328 32.0703ZM52.6484 29.8984H56.3281L58.1172 41H55.1719L54.8828 38.6328H50.5312L49.2031 41H46.0859L52.6484 29.8984ZM61.2734 29.8984H64.9219L66.6484 35.5312C66.8047 36.0312 66.9245 36.4609 67.0078 36.8203C67.0911 37.1797 67.151 37.5234 67.1875 37.8516H67.3203C67.3411 37.5443 67.3828 37.2031 67.4453 36.8281C67.5078 36.4531 67.5938 36.0156 67.7031 35.5156L68.8906 29.8984H71.5938L69.2266 41H65.5781L63.6875 34.7891C63.599 34.5078 63.5234 34.2214 63.4609 33.9297C63.3984 33.6328 63.3516 33.3229 63.3203 33H63.2031C63.151 33.4062 63.0964 33.7943 63.0391 34.1641C62.9818 34.5286 62.9193 34.8724 62.8516 35.1953L61.625 41H58.9062L61.2734 29.8984ZM76.3516 32.0391L74.9062 38.8047H76.1562C76.8125 38.8047 77.362 38.7318 77.8047 38.5859C78.2526 38.4349 78.6406 38.1953 78.9688 37.8672C79.3698 37.4661 79.6797 36.9896 79.8984 36.4375C80.1224 35.8802 80.2344 35.3047 80.2344 34.7109C80.2344 33.862 79.9948 33.2057 79.5156 32.7422C79.0365 32.2734 78.3542 32.0391 77.4688 32.0391H76.3516ZM73.7734 29.8984H77.4688C79.4219 29.8984 80.875 30.3021 81.8281 31.1094C82.7812 31.9167 83.2578 33.1484 83.2578 34.8047C83.2578 35.7578 83.0911 36.6406 82.7578 37.4531C82.4297 38.2604 81.9635 38.9245 81.3594 39.4453C80.7396 39.987 80.013 40.3828 79.1797 40.6328C78.3464 40.8776 77.3073 41 76.0625 41H71.4219L73.7734 29.8984Z" fill="white"/>
</svg>
