<svg width="22" height="22" viewBox="0 0 22 22" fill="none" xmlns="http://www.w3.org/2000/svg">
<path d="M11 10.0306C13.2275 10.0306 14.905 6.73059 14.905 4.5925C14.905 3.55683 14.4936 2.56358 13.7612 1.83125C13.0289 1.09892 12.0356 0.6875 11 0.6875C9.9643 0.6875 8.97105 1.09892 8.23872 1.83125C7.50639 2.56358 7.09497 3.55683 7.09497 4.5925C7.09497 6.73062 8.77247 10.0306 11 10.0306Z" fill="#FA6400"/>
<path d="M11 21.3126C11.3523 21.3124 11.704 21.2849 12.0519 21.2301L19.5319 20.0613V17.1944C19.5338 16.2311 19.2299 15.2921 18.6641 14.5125C18.0982 13.7329 17.2996 13.153 16.3831 12.8563L12.1344 11.4676C11.3973 11.227 10.6028 11.227 9.86565 11.4676L5.6169 12.8563C4.70045 13.153 3.90181 13.7329 3.33596 14.5125C2.77012 15.2921 2.46626 16.2311 2.46815 17.1944V20.0613L9.94815 21.2301C10.2961 21.2849 10.6478 21.3124 11 21.3126Z" fill="#FA6400"/>
</svg>
