<svg width="22" height="22" viewBox="0 0 22 22" fill="none" xmlns="http://www.w3.org/2000/svg">
<path d="M16.7595 4.6452C16.8124 4.09715 16.8124 3.60359 16.8124 3H6.18762C6.18762 3.60359 6.18762 4.09715 6.24041 4.6452H3V5.19325C3 10.0744 9.0037 13.5293 10.4381 14.2963L10.4371 16.1616C10.4371 17.0942 9.74682 17.8068 8.84332 17.8068H7.78044V20H15.2186V17.8068H14.1557C13.2522 17.8068 12.5619 17.0942 12.5619 16.1616V14.2973C13.9963 13.5292 20 10.0743 20 5.19427V4.64622L16.7595 4.6452ZM4.11564 5.74235H6.34698C6.55917 8.21014 7.14388 9.96537 7.78141 11.226C6.081 9.85534 4.32781 7.93559 4.11564 5.74235ZM15.2723 11.226C15.9098 9.96432 16.4946 8.21014 16.7068 5.74235H18.9381C18.6721 7.93559 16.9189 9.85534 15.2723 11.226Z" fill="#FA6400"/>
</svg>
