<svg width="23" height="22" viewBox="0 0 23 22" fill="none" xmlns="http://www.w3.org/2000/svg">
<g clip-path="url(#clip0_2007_2745)">
<path d="M2.78411 18.4475C3.48197 17.3926 4.80138 16.1529 5.91492 15.2047C6.01309 15.1211 6.09219 15.0243 6.15502 14.9198C6.64194 15.2317 7.11148 15.5798 7.57541 15.9241C7.22928 17.1506 6.77545 18.3315 6.02992 19.3957C4.96519 20.917 7.48845 22.3421 8.54253 20.8362C9.60726 19.3154 10.1968 17.5197 10.6294 15.7399C10.792 15.0705 10.5132 14.515 9.96067 14.1289C9.04628 13.4898 8.1678 12.8304 7.22367 12.2694L9.29311 7.65325L11.6285 8.94245L15.7971 8.0685C16.3967 7.9431 16.7922 7.4008 16.7468 6.81615L17.1535 6.7177C17.4867 7.45195 18.3181 7.8705 19.1416 7.66975C20.0661 7.4448 20.6293 6.52795 20.3999 5.62155C20.171 4.7157 19.2358 4.1635 18.3108 4.3879C17.4867 4.58865 16.9516 5.33885 17.0071 6.14075L16.5516 6.25185C16.2846 5.85695 15.7909 5.64025 15.2894 5.74475L12.0183 6.43115L9.18653 4.8675C9.0906 4.7905 8.98514 4.72175 8.86902 4.6651C8.02924 4.2559 7.01106 4.59085 6.5937 5.4142L3.7877 11.671C3.64465 11.9531 3.59248 12.2551 3.61716 12.5477C3.59192 12.8012 3.62502 13.063 3.72375 13.3039C2.45819 14.3891 1.18477 15.6266 0.27038 17.0076C-0.754522 18.5553 1.76482 19.9842 2.78411 18.4475ZM9.82604 4.2691C8.76299 4.2691 7.90077 3.42375 7.90077 2.3815C7.90077 1.33925 8.76299 0.493896 9.82604 0.493896C10.8891 0.493896 11.7513 1.33925 11.7513 2.3815C11.7513 3.42375 10.8891 4.2691 9.82604 4.2691ZM22.0491 8.41225C21.6811 8.41225 21.3827 8.11965 21.3827 7.75885C21.3827 7.39805 21.6811 7.10545 22.0491 7.10545C22.4171 7.10545 22.7156 7.39805 22.7156 7.75885C22.7156 8.11965 22.4171 8.41225 22.0491 8.41225Z" fill="#FA6400"/>
</g>
<defs>
<clipPath id="clip0_2007_2745">
<rect width="23" height="22" fill="white" transform="matrix(-1 0 0 1 23 0)"/>
</clipPath>
</defs>
</svg>
